<svg width="500.000000" height="500.000000" viewBox="0 0 500 500" fill="none" xmlns="http://www.w3.org/2000/svg" xmlns:xlink="http://www.w3.org/1999/xlink">
	<g>
		<path d="M234.5 266L85 465L203.5 268L94.5 133.5L216 133.5L263.5 191.5L322 151L261.5 230.5L203.5 158.5L147.5 158.5L234.5 266Z" fill-rule="evenodd" fill="#42B883"/>
		<path d="M85 465L203.5 268L94.5 133.5L216 133.5L263.5 191.5L322 151L261.5 230.5L203.5 158.5L147.5 158.5L234.5 266L85 465Z" stroke="#42B883"/>
		<path d="M271 241L420.5 42L302 239L411 373.5L289.5 373.5L242 315.5L183.5 356L244 276.5L302 348.5L358 348.5L271 241Z" fill-rule="evenodd" fill="#35495E"/>
		<path d="M420.5 42L302 239L411 373.5L289.5 373.5L242 315.5L183.5 356L244 276.5L302 348.5L358 348.5L271 241L420.5 42Z" stroke="#35495E"/>
	</g>
</svg>
