<?xml version="1.0" standalone="no"?>
<!DOCTYPE svg PUBLIC "-//W3C//DTD SVG 20010904//EN"
 "http://www.w3.org/TR/2001/REC-SVG-20010904/DTD/svg10.dtd">
<svg version="1.0" xmlns="http://www.w3.org/2000/svg"
 width="700.000000pt" height="700.000000pt" viewBox="0 0 700.000000 700.000000"
 preserveAspectRatio="xMidYMid meet">
<metadata>
Created by potrace 1.14, written by Peter Selinger 2001-2017
</metadata>
<g transform="translate(0.000000,700.000000) scale(0.100000,-0.100000)"
fill="#000000" stroke="none">
<path d="M5540 5973 c-184 -245 -340 -450 -345 -456 -6 -7 -50 -64 -97 -127
-71 -95 -324 -430 -405 -536 -83 -110 -592 -785 -712 -944 -80 -107 -148 -197
-151 -200 -3 -3 -17 -21 -32 -41 l-27 -36 137 -169 c75 -93 184 -227 242 -299
57 -71 106 -132 109 -135 4 -3 51 -61 106 -130 55 -69 107 -134 117 -145 9
-11 67 -83 130 -160 62 -77 173 -213 246 -302 l132 -163 -369 0 -370 0 -294
362 c-161 200 -349 432 -417 516 -68 84 -126 149 -130 145 -4 -4 -56 -73 -117
-153 -353 -467 -530 -702 -635 -840 -64 -85 -114 -156 -109 -158 8 -3 67 31
451 259 69 40 134 79 145 85 44 25 244 143 266 157 24 16 25 15 110 -91 48
-59 168 -208 269 -332 100 -124 201 -249 224 -277 l41 -53 868 0 c477 0 867 3
867 6 0 3 -31 42 -68 87 -37 45 -124 152 -192 237 -69 85 -132 164 -142 175
-9 11 -137 169 -283 350 -147 182 -278 344 -292 360 -13 17 -36 45 -51 64 -15
19 -50 62 -77 95 -28 34 -98 120 -155 191 -58 72 -107 132 -110 135 -22 20
-145 184 -143 191 2 5 29 52 61 106 32 54 61 105 65 113 4 8 16 30 27 48 30
49 464 795 555 952 42 74 85 146 95 160 9 14 19 30 21 36 2 5 103 180 224 388
121 207 228 391 238 409 10 18 86 148 169 289 82 142 148 262 146 267 -1 5
-154 -191 -338 -436z"/>
<path d="M1253 5214 c18 -23 183 -228 367 -454 184 -227 344 -424 355 -438 11
-15 64 -81 118 -147 54 -66 104 -127 110 -135 7 -8 39 -49 72 -90 33 -41 62
-77 66 -80 7 -6 370 -456 387 -480 12 -17 -18 -73 -274 -512 -158 -271 -301
-518 -319 -548 -17 -30 -122 -210 -232 -400 -110 -190 -209 -360 -219 -377
-11 -18 -140 -240 -288 -494 -147 -253 -266 -463 -263 -465 3 -3 61 68 128
158 67 90 157 208 199 263 42 55 168 222 280 370 112 149 272 360 355 470 83
110 194 256 245 325 52 69 96 127 99 130 4 3 67 86 141 185 74 99 253 336 397
527 145 191 263 350 263 352 0 2 -90 116 -201 253 -111 136 -215 266 -232 287
-18 21 -85 105 -151 185 -65 80 -130 161 -145 179 -14 18 -31 39 -36 45 -13
14 -183 225 -324 399 -56 70 -107 130 -112 133 -34 22 19 25 355 25 l365 -1
68 -82 c37 -45 86 -104 108 -132 22 -27 42 -52 45 -55 3 -3 21 -25 40 -50 19
-25 37 -47 40 -50 3 -3 42 -50 85 -105 44 -55 82 -102 85 -105 3 -3 23 -27 45
-55 22 -27 44 -55 50 -62 5 -6 68 -83 140 -172 123 -153 130 -160 147 -144 9
10 148 191 308 403 160 212 349 463 421 558 72 95 128 176 125 179 -3 4 -20
-3 -36 -15 -16 -12 -31 -22 -34 -22 -3 0 -173 -100 -378 -221 -427 -254 -440
-261 -442 -257 -2 2 -41 50 -87 108 -424 526 -513 636 -521 645 -6 7 -312 10
-878 11 l-869 0 32 -42z"/>
</g>
</svg>
