<?xml version="1.0" standalone="no"?>
<!DOCTYPE svg PUBLIC "-//W3C//DTD SVG 20010904//EN"
 "http://www.w3.org/TR/2001/REC-SVG-20010904/DTD/svg10.dtd">
<svg version="1.0" xmlns="http://www.w3.org/2000/svg"
 width="700.000000pt" height="700.000000pt" viewBox="0 0 700.000000 700.000000"
 preserveAspectRatio="xMidYMid meet">
<metadata>
Created by potrace 1.14, written by Peter Selinger 2001-2017
</metadata>
<g transform="translate(0.000000,700.000000) scale(0.100000,-0.100000)"
fill="#000000" stroke="none">
<path d="M5532 5952 c-177 -235 -399 -528 -492 -652 -94 -124 -178 -236 -188
-249 -9 -13 -26 -35 -38 -50 -11 -14 -83 -109 -160 -211 -159 -212 -147 -196
-177 -235 -23 -30 -168 -220 -506 -670 -96 -126 -178 -235 -183 -241 -5 -7 26
-53 88 -130 53 -66 140 -173 193 -239 53 -66 98 -122 101 -125 4 -3 82 -99
175 -215 93 -115 172 -212 175 -215 3 -3 41 -50 85 -105 44 -55 82 -102 85
-105 3 -3 41 -50 85 -105 44 -55 82 -102 85 -105 5 -5 118 -147 133 -167 6 -9
-82 -11 -369 -10 l-377 2 -89 110 c-49 61 -97 119 -106 130 -9 11 -53 65 -97
120 -44 55 -82 102 -85 105 -9 9 -332 408 -403 499 -47 59 -52 62 -64 45 -8
-11 -22 -30 -33 -44 -10 -14 -98 -131 -196 -260 -98 -129 -276 -365 -396 -524
-120 -159 -218 -290 -216 -291 2 -2 55 28 118 66 63 38 122 72 130 76 8 4 66
37 128 75 62 37 114 68 116 68 1 0 85 49 187 110 101 60 189 110 194 110 6 -1
44 -44 85 -96 41 -53 82 -103 91 -112 9 -10 71 -87 139 -172 68 -85 164 -204
214 -265 49 -60 91 -112 93 -114 4 -5 1723 -8 1723 -3 0 2 -38 49 -83 105 -46
56 -133 163 -193 237 -60 75 -251 310 -424 524 -173 213 -326 402 -340 421
-14 18 -89 111 -166 206 -78 96 -180 221 -226 278 l-85 104 63 106 c35 58 71
123 81 144 10 20 21 37 25 37 5 0 8 4 8 9 0 9 119 221 130 231 5 5 11 15 56
95 12 23 69 120 125 216 106 182 239 411 269 463 9 17 57 99 105 181 49 83 94
159 100 170 10 19 66 114 85 145 5 8 104 179 221 380 215 372 278 480 312 538
10 17 17 32 15 32 -2 0 -148 -193 -326 -428z"/>
<path d="M1240 5244 c0 -3 19 -29 42 -58 24 -28 47 -56 53 -63 5 -7 15 -18 20
-25 57 -71 221 -274 225 -278 4 -4 160 -197 267 -330 6 -8 45 -55 85 -105 41
-49 130 -160 198 -245 69 -85 127 -157 130 -160 3 -3 52 -63 110 -135 57 -71
163 -202 234 -290 71 -88 133 -165 138 -171 5 -7 -36 -87 -105 -206 -63 -106
-116 -198 -118 -203 -2 -6 -29 -53 -60 -105 -31 -52 -67 -113 -80 -136 -31
-53 -317 -544 -330 -564 -12 -21 -206 -355 -238 -411 -19 -34 -260 -446 -401
-689 -5 -8 -36 -62 -70 -120 -33 -58 -65 -112 -70 -120 -10 -17 -60 -104 -98
-170 -35 -62 -31 -57 110 130 68 91 187 248 264 350 77 102 216 286 309 410
94 124 172 227 175 230 3 3 66 86 140 185 74 99 137 182 140 185 3 3 66 86
140 185 73 99 138 185 143 190 16 19 620 820 630 836 7 11 5 21 -6 35 -9 10
-32 39 -52 64 -20 25 -44 54 -53 65 -10 11 -35 42 -57 70 -22 27 -48 59 -57
70 -25 30 -572 707 -728 900 -74 92 -140 173 -145 179 -11 12 -84 103 -102
126 -11 14 27 15 355 14 202 0 372 -2 379 -3 12 -1 195 -224 692 -840 73 -91
136 -170 141 -174 6 -7 49 40 105 117 11 15 67 90 125 166 58 76 188 249 290
385 102 135 190 252 195 258 6 7 39 50 74 97 35 47 69 92 75 100 7 9 -2 6 -24
-7 -75 -44 -427 -252 -457 -269 -18 -11 -114 -67 -214 -127 -101 -59 -185
-104 -188 -99 -9 13 -84 105 -98 120 -7 7 -34 41 -60 75 -26 34 -50 64 -53 67
-6 5 -177 215 -339 417 l-66 83 -857 0 c-472 0 -858 -3 -858 -6z"/>
</g>
</svg>
